<svg width="50" height="50" viewBox="0 0 50 50" fill="none" xmlns="http://www.w3.org/2000/svg">
<rect width="50" height="50" rx="15" fill="#EDE7F2"/>
<path fill-rule="evenodd" clip-rule="evenodd" d="M24.9432 13.5781C25.1294 13.4109 25.3757 13.3232 25.6279 13.3345C30.9577 13.4941 35.4121 17.3653 36.2194 22.5392C36.2245 22.5701 36.2245 22.6016 36.2194 22.6325C36.2368 22.8773 36.1541 23.1188 35.9896 23.3037C35.8251 23.4885 35.5924 23.6013 35.3429 23.6173L26.3882 24.2081C26.092 24.2344 25.7984 24.1369 25.5793 23.9396C25.3602 23.7423 25.236 23.4634 25.2372 23.1715L24.6352 14.371V14.2259C24.6462 13.9784 24.757 13.7453 24.9432 13.5781ZM24.329 26.5093L32.0905 26.0118L32.1433 26.0325C32.4766 26.0379 32.794 26.1732 33.0257 26.4084C33.2574 26.6436 33.3844 26.9596 33.3788 27.2867C33.0729 31.7459 29.8054 35.4716 25.3587 36.4314C20.9121 37.3913 16.3537 35.3548 14.1704 31.433C13.5284 30.3035 13.1227 29.0595 12.9771 27.7739C12.9207 27.393 12.8959 27.0082 12.9032 26.6233C12.9179 21.8817 16.292 17.7891 21.0132 16.7863C21.5847 16.6792 22.1577 16.9647 22.4071 17.4808C22.4692 17.5744 22.5188 17.6754 22.5549 17.7814C22.6434 19.1483 22.7352 20.5022 22.8266 21.8505C22.8988 22.9151 22.9708 23.9763 23.0407 25.0374C23.0371 25.2874 23.0763 25.5362 23.1568 25.7733C23.3463 26.24 23.8179 26.5361 24.329 26.5093Z" fill="#75578E"/>
</svg>
