<svg width="50" height="50" viewBox="0 0 50 50" fill="none" xmlns="http://www.w3.org/2000/svg">
<rect x="-0.000488281" y="0.000976562" width="50" height="50" rx="15" fill="#E7F2EF"/>
<path fill-rule="evenodd" clip-rule="evenodd" d="M34.3564 21.6703L35.1963 22.5103C35.8612 23.1636 36.2228 24.0503 36.2228 24.9836C36.2345 25.9169 35.8729 26.8048 35.2196 27.4686C35.2119 27.4771 35.2041 27.4847 35.1963 27.4922C35.1924 27.4959 35.1885 27.4997 35.1846 27.5036L34.3564 28.3319C34.0298 28.6586 33.8432 29.1019 33.8432 29.5698V30.7703C33.8432 32.7069 32.2684 34.2831 30.3321 34.2831H29.1306C28.664 34.2831 28.2207 34.4686 27.8941 34.7953L27.0542 35.6353C26.366 36.3248 25.4678 36.6619 24.5696 36.6619C23.6714 36.6619 22.7732 36.3248 22.085 35.6481L21.2335 34.7953C20.9069 34.4686 20.4636 34.2831 19.997 34.2831H18.7955C16.8592 34.2831 15.2844 32.7069 15.2844 30.7703V29.5698C15.2844 29.1019 15.0978 28.6586 14.7712 28.3203L13.9313 27.4919C12.5665 26.1281 12.5548 23.8986 13.9196 22.5231L14.7712 21.6703C15.0978 21.3436 15.2844 20.9003 15.2844 20.4219V19.2319C15.2844 17.2953 16.8592 15.7214 18.7955 15.7214H19.997C20.4636 15.7214 20.9069 15.5336 21.2335 15.2069L22.0734 14.3669C23.4381 12.9914 25.6661 12.9914 27.0426 14.3564L27.8941 15.2069C28.2207 15.5336 28.664 15.7214 29.1306 15.7214H30.3321C32.2684 15.7214 33.8432 17.2953 33.8432 19.2319V20.4348C33.8432 20.9003 34.0298 21.3436 34.3564 21.6703ZM21.5601 29.0203C21.8401 29.0203 22.0967 28.9153 22.2834 28.7169L28.2791 22.7214C28.6757 22.3248 28.6757 21.6703 28.2791 21.2736C27.8825 20.8781 27.2409 20.8781 26.8443 21.2736L20.8486 27.2703C20.452 27.6669 20.452 28.3203 20.8486 28.7169C21.0352 28.9153 21.2918 29.0203 21.5601 29.0203ZM26.541 27.9936C26.541 28.5652 26.9959 29.0202 27.5675 29.0202C28.1274 29.0202 28.5823 28.5652 28.5823 27.9936C28.5823 27.4347 28.1274 26.9786 27.5675 26.9786C26.9959 26.9786 26.541 27.4347 26.541 27.9936ZM21.5717 20.9819C22.1316 20.9819 22.5866 21.4369 22.5866 21.9969C22.5866 22.5697 22.1316 23.0236 21.5717 23.0236C21.0118 23.0236 20.5452 22.5697 20.5452 21.9969C20.5452 21.4369 21.0118 20.9819 21.5717 20.9819Z" fill="#51A690"/>
</svg>
