<svg width="50" height="50" viewBox="0 0 50 50" fill="none" xmlns="http://www.w3.org/2000/svg">
<rect width="50" height="50" rx="15" fill="#FFE7DB"/>
<path fill-rule="evenodd" clip-rule="evenodd" d="M19.3253 13.334H30.2151C34.1809 13.334 36.4197 15.5845 36.4314 19.5523V30.449C36.4314 34.4157 34.1809 36.6673 30.2151 36.6673H19.3253C15.3596 36.6673 13.1102 34.4157 13.1102 30.449V19.5523C13.1102 15.5845 15.3596 13.334 19.3253 13.334ZM24.8279 31.8373C25.3305 31.8373 25.7491 31.464 25.7958 30.9623V19.074C25.8424 18.7123 25.6687 18.3495 25.3538 18.1523C25.0262 17.954 24.6297 17.954 24.316 18.1523C24 18.3495 23.8263 18.7123 23.8601 19.074V30.9623C23.9196 31.464 24.3382 31.8373 24.8279 31.8373ZM30.193 31.8373C30.6827 31.8373 31.1013 31.464 31.1608 30.9623V27.1357C31.1946 26.7612 31.0209 26.4123 30.7049 26.214C30.3912 26.0157 29.9947 26.0157 29.6683 26.214C29.3522 26.4123 29.1785 26.7612 29.2251 27.1357V30.9623C29.2718 31.464 29.6904 31.8373 30.193 31.8373ZM20.3619 30.9624C20.3153 31.464 19.8967 31.8374 19.3941 31.8374C18.8927 31.8374 18.4729 31.464 18.4275 30.9624V22.9007C18.3925 22.5379 18.5662 22.1774 18.8822 21.979C19.1959 21.7807 19.5935 21.7807 19.9083 21.979C20.222 22.1774 20.3981 22.5379 20.3619 22.9007V30.9624Z" fill="#FEAD86"/>
</svg>
