<svg width="50" height="50" viewBox="0 0 50 50" fill="none" xmlns="http://www.w3.org/2000/svg">
<rect width="50" height="50" rx="15" fill="#C0F2EF"/>
<path fill-rule="evenodd" clip-rule="evenodd" d="M13.1097 23.4484C13.1097 17.8621 17.5878 13.3335 23.1118 13.3335C25.7645 13.3335 28.3085 14.3992 30.1843 16.2961C32.06 18.193 33.1138 20.7658 33.1138 23.4484C33.1138 29.0347 28.6357 33.5633 23.1118 33.5633C17.5878 33.5633 13.1097 29.0347 13.1097 23.4484ZM32.9483 31.5968L35.9272 34.0026H35.9789C36.5816 34.6121 36.5816 35.6002 35.9789 36.2097C35.3762 36.8192 34.3991 36.8192 33.7965 36.2097L31.3244 33.375C31.0907 33.1395 30.9593 32.8196 30.9593 32.4859C30.9593 32.1522 31.0907 31.8323 31.3244 31.5968C31.7751 31.1489 32.4976 31.1489 32.9483 31.5968Z" fill="#00A198"/>
</svg>
