<svg width="96" height="14" viewBox="0 0 96 14" fill="none" xmlns="http://www.w3.org/2000/svg">
<path d="M3.31281 12.6771C2.31486 12.1219 1.50402 11.3816 0.942668 10.3945C0.381319 9.40743 0.069458 8.35867 0.069458 7.12482C0.069458 5.89097 0.381319 4.8422 0.942668 3.85513C1.50402 2.86805 2.31486 2.12774 3.31281 1.57251C4.31076 1.01727 5.43346 0.770508 6.74327 0.770508C7.74123 0.770508 8.67681 0.955581 9.55002 1.32574C10.4232 1.69589 11.1093 2.18943 11.6707 2.86804L10.1737 4.28697C9.30053 3.29989 8.17783 2.86804 6.86801 2.86804C5.99481 2.86804 5.24634 3.05312 4.56025 3.42328C3.87416 3.79343 3.37518 4.28697 3.00095 4.96559C2.62672 5.6442 2.4396 6.38451 2.4396 7.18651C2.4396 7.98851 2.62672 8.79051 3.00095 9.40744C3.37518 10.0861 3.93653 10.5796 4.56025 10.9497C5.24634 11.3199 5.99481 11.505 6.86801 11.505C8.17783 11.505 9.30053 11.0114 10.1737 10.0244L11.6707 11.4433C11.1093 12.1219 10.3609 12.6154 9.55002 12.9856C8.67681 13.3557 7.74123 13.5408 6.74327 13.5408C5.49583 13.5408 4.31076 13.2324 3.31281 12.6771Z" fill="white" fill-opacity="0.8"/>
<path d="M16.0367 12.6771C15.0387 12.1219 14.2279 11.3816 13.6042 10.3945C13.0428 9.40743 12.731 8.35867 12.731 7.12482C12.731 5.95267 13.0428 4.8422 13.6042 3.85512C14.1655 2.86805 14.9763 2.12774 16.0367 1.57251C17.0346 1.01727 18.2197 0.770508 19.4671 0.770508C20.7146 0.770508 21.8996 1.01727 22.8976 1.57251C23.8955 2.12774 24.7064 2.86805 25.3301 3.85512C25.8915 4.8422 26.2033 5.89097 26.2033 7.12482C26.2033 8.35867 25.8915 9.40743 25.3301 10.3945C24.7688 11.3816 23.9579 12.1219 22.8976 12.6771C21.8996 13.2324 20.7146 13.4791 19.4671 13.4791C18.1573 13.5408 17.0346 13.2324 16.0367 12.6771ZM21.7125 10.9497C22.3986 10.5796 22.8976 10.086 23.2718 9.40743C23.6461 8.72882 23.8332 7.98851 23.8332 7.18651C23.8332 6.38451 23.6461 5.6442 23.2718 4.96559C22.8976 4.28697 22.3986 3.79343 21.7125 3.42328C21.0264 3.05312 20.278 2.86804 19.4671 2.86804C18.6563 2.86804 17.9078 3.05312 17.2217 3.42328C16.5356 3.79343 16.0367 4.28697 15.6624 4.96559C15.2882 5.6442 15.1011 6.38451 15.1011 7.18651C15.1011 7.98851 15.2882 8.72882 15.6624 9.40743C16.0367 10.086 16.5356 10.5796 17.2217 10.9497C17.9078 11.3199 18.6563 11.505 19.4671 11.505C20.278 11.505 21.0264 11.3199 21.7125 10.9497Z" fill="white" fill-opacity="0.8"/>
<path d="M40.0496 13.3559V5.21249L35.933 11.9986H34.8727L30.7561 5.33587V13.4176H28.5731V1.0791H30.5067L35.4341 9.22249L40.2991 1.0791H42.2326V13.4176H40.0496V13.3559Z" fill="white" fill-opacity="0.8"/>
<path d="M53.5845 1.57343C54.3953 1.94358 55.019 2.43712 55.4556 3.11574C55.8922 3.79435 56.0793 4.53466 56.0793 5.46004C56.0793 6.32373 55.8922 7.12574 55.4556 7.80435C55.019 8.48297 54.3953 8.97651 53.5845 9.34666C52.7736 9.71681 51.838 9.9019 50.7777 9.9019H47.971V13.48H45.6632V1.14158H50.7777C51.838 1.0182 52.7736 1.20327 53.5845 1.57343ZM52.8984 7.24913C53.3974 6.81728 53.7092 6.20035 53.7092 5.46004C53.7092 4.65804 53.4597 4.04112 52.8984 3.67097C52.3994 3.23912 51.5886 3.05404 50.5906 3.05404H47.9086V7.92774H50.5906C51.6509 7.86604 52.3994 7.61928 52.8984 7.24913Z" fill="white" fill-opacity="0.8"/>
<path d="M65.8099 10.5192H59.5727L58.3252 13.357H55.9551L61.5686 1.01855H63.8763L69.4898 13.357H67.0573L65.8099 10.5192ZM65.0614 8.73009L62.6913 3.36286L60.3835 8.73009H65.0614Z" fill="white" fill-opacity="0.8"/>
<path d="M82.1506 1.01855V13.357H80.217L73.3561 5.02856V13.357H71.0483V1.01855H72.9819L79.8428 9.34702V1.01855H82.1506V1.01855Z" fill="white" fill-opacity="0.8"/>
<path d="M90.8832 8.97606V13.2945H88.5755V8.97606L83.7104 0.956055H86.2053L89.8229 6.94021L93.5029 0.956055H95.8107L90.8832 8.97606Z" fill="white" fill-opacity="0.8"/>
</svg>
