<svg width="72" height="40" viewBox="0 0 72 40" fill="none" xmlns="http://www.w3.org/2000/svg">
<path d="M26.6225 13.6256C24.2608 12.2769 23.4145 9.24182 24.7945 6.87764C26.1581 4.54161 29.2266 3.70458 31.6168 5.06953C33.9786 6.41824 34.8248 9.45331 33.4448 11.8175C32.0648 14.1817 29.0127 14.9906 26.6225 13.6256Z" fill="white" fill-opacity="0.8"/>
<path d="M64.058 21.9176C68.0173 15.1347 65.6361 6.34458 58.7784 2.42845C51.8923 -1.50393 43.0338 0.867624 39.0745 7.65056L28.5274 25.7196C28.5274 25.7196 55.1209 37.2285 64.058 21.9176Z" fill="white" fill-opacity="0.8"/>
<path d="M5.02712 20.2392C2.26712 24.9675 3.89833 31.0777 8.67878 33.8076C13.4592 36.5375 19.6083 34.9079 22.3683 30.1795L29.7118 17.5987C29.7403 17.615 11.2371 9.60038 5.02712 20.2392ZM12.3752 27.475C11.1232 26.76 10.6902 25.1618 11.4131 23.9235C12.1359 22.6851 13.7517 22.2568 15.0038 22.9718C16.2558 23.6868 16.6887 25.285 15.9659 26.5234C15.2715 27.778 13.6557 28.2062 12.3752 27.475Z" fill="white" fill-opacity="0.8"/>
</svg>
