<svg width="141" height="19" viewBox="0 0 141 19" fill="none" xmlns="http://www.w3.org/2000/svg">
<path d="M4.77288 17.7147C3.30431 16.8887 2.11108 15.7872 1.28501 14.3186C0.458932 12.8501 0 11.2897 0 9.45398C0 7.61825 0.458932 6.05789 1.28501 4.58931C2.11108 3.12073 3.30431 2.01929 4.77288 1.19322C6.24146 0.36714 7.89361 0 9.82112 0C11.2897 0 12.6665 0.275353 13.9515 0.82607C15.2365 1.37679 16.2461 2.11108 17.0722 3.12072L14.8694 5.23181C13.5844 3.76323 11.9322 3.12072 10.0047 3.12072C8.71969 3.12072 7.61825 3.39608 6.60861 3.9468C5.59896 4.49752 4.86467 5.23181 4.31395 6.24146C3.76324 7.25111 3.48788 8.35253 3.48788 9.54575C3.48788 10.739 3.76324 11.9322 4.31395 12.8501C4.86467 13.8597 5.69075 14.594 6.60861 15.1447C7.61825 15.6954 8.71969 15.9708 10.0047 15.9708C11.9322 15.9708 13.5844 15.2365 14.8694 13.7679L17.0722 15.879C16.2461 16.8887 15.1447 17.6229 13.9515 18.1737C12.6665 18.7244 11.2897 18.9997 9.82112 18.9997C7.9854 18.9997 6.24146 18.5408 4.77288 17.7147Z" fill="white"/>
<path d="M23.4971 17.7147C22.0285 16.8887 20.8353 15.7872 19.9175 14.3186C19.0914 12.8501 18.6324 11.2897 18.6324 9.45398C18.6324 7.71004 19.0914 6.05789 19.9175 4.58931C20.7435 3.12073 21.9367 2.01929 23.4971 1.19322C24.9657 0.36714 26.7096 0 28.5453 0C30.3811 0 32.125 0.36714 33.5936 1.19322C35.0622 2.01929 36.2554 3.12073 37.1732 4.58931C37.9993 6.05789 38.4583 7.61825 38.4583 9.45398C38.4583 11.2897 37.9993 12.8501 37.1732 14.3186C36.3472 15.7872 35.1539 16.8887 33.5936 17.7147C32.125 18.5408 30.3811 18.9079 28.5453 18.9079C26.6178 18.9997 24.9657 18.5408 23.4971 17.7147ZM31.8497 15.1447C32.8593 14.594 33.5936 13.8597 34.1443 12.8501C34.695 11.8404 34.9704 10.739 34.9704 9.54575C34.9704 8.35253 34.695 7.25111 34.1443 6.24146C33.5936 5.23181 32.8593 4.49752 31.8497 3.9468C30.84 3.39608 29.7386 3.12072 28.5453 3.12072C27.3521 3.12072 26.2507 3.39608 25.241 3.9468C24.2314 4.49752 23.4971 5.23181 22.9464 6.24146C22.3957 7.25111 22.1203 8.35253 22.1203 9.54575C22.1203 10.739 22.3957 11.8404 22.9464 12.8501C23.4971 13.8597 24.2314 14.594 25.241 15.1447C26.2507 15.6954 27.3521 15.9708 28.5453 15.9708C29.7386 15.9708 30.84 15.6954 31.8497 15.1447Z" fill="white"/>
<path d="M58.8344 18.7254V6.60963L52.7766 16.7061H51.2162L45.1583 6.7932V18.8172H41.9458V0.459961H44.7912L52.0423 12.5757L59.2016 0.459961H62.047V18.8172H58.8344V18.7254Z" fill="white"/>
<path d="M78.7521 1.19425C79.9453 1.74497 80.8631 2.47926 81.5056 3.48891C82.1481 4.49856 82.4235 5.59998 82.4235 6.97678C82.4235 8.26178 82.1481 9.45501 81.5056 10.4647C80.8631 11.4743 79.9453 12.2086 78.7521 12.7593C77.5588 13.31 76.182 13.5854 74.6217 13.5854H70.4913V18.909H67.0952V0.551754H74.6217C76.182 0.368181 77.5588 0.643537 78.7521 1.19425ZM77.7424 9.63858C78.4767 8.99608 78.9356 8.07821 78.9356 6.97678C78.9356 5.78356 78.5685 4.8657 77.7424 4.31498C77.0081 3.67248 75.8149 3.39712 74.3463 3.39712H70.3995V10.6482H74.3463C75.9067 10.5564 77.0081 10.1893 77.7424 9.63858Z" fill="white"/>
<path d="M96.7429 14.5042H87.5643L85.7286 18.7264H82.2407L90.5015 0.369141H93.8976L102.158 18.7264H98.5787L96.7429 14.5042ZM95.6415 11.8424L92.1536 3.85702L88.7575 11.8424H95.6415Z" fill="white"/>
<path d="M120.79 0.369141V18.7264H117.944L107.848 6.33524V18.7264H104.452V0.369141H107.297L117.394 12.7603V0.369141H120.79Z" fill="white"/>
<path d="M133.641 12.2086V18.6336H130.245V12.2086L123.085 0.276367H126.757L132.08 9.17963L137.496 0.276367H140.892L133.641 12.2086Z" fill="white"/>
</svg>
