<svg width="50" height="50" viewBox="0 0 50 50" fill="none" xmlns="http://www.w3.org/2000/svg">
<rect width="50" height="50" rx="15" fill="#CEEDFF"/>
<path fill-rule="evenodd" clip-rule="evenodd" d="M20.307 15H28.6836C31.771 15 33.4901 16.78 33.4901 19.83V30.16C33.4901 33.26 31.771 35 28.6836 35H20.307C17.2686 35 15.4995 33.26 15.4995 30.16V19.83C15.4995 16.78 17.2686 15 20.307 15ZM20.5768 19.6601V19.6501H23.5643C23.995 19.6501 24.3448 20.0001 24.3448 20.4291C24.3448 20.8701 23.995 21.2201 23.5643 21.2201H20.5768C20.146 21.2201 19.7972 20.8701 19.7972 20.4401C19.7972 20.0101 20.146 19.6601 20.5768 19.6601ZM20.5768 25.7401H28.4127C28.8425 25.7401 29.1923 25.3901 29.1923 24.9601C29.1923 24.5301 28.8425 24.1791 28.4127 24.1791H20.5768C20.146 24.1791 19.7972 24.5301 19.7972 24.9601C19.7972 25.3901 20.146 25.7401 20.5768 25.7401ZM20.5768 30.31H28.4127C28.8115 30.27 29.1124 29.929 29.1124 29.53C29.1124 29.12 28.8115 28.78 28.4127 28.74H20.5768C20.277 28.71 19.9871 28.85 19.8272 29.11C19.6673 29.36 19.6673 29.69 19.8272 29.95C19.9871 30.2 20.277 30.35 20.5768 30.31Z" fill="#4DBCFE"/>
</svg>
