<svg width="50" height="50" viewBox="0 0 50 50" fill="none" xmlns="http://www.w3.org/2000/svg">
<rect x="-0.000244141" width="50" height="50" rx="15" fill="#DAE6FF"/>
<path fill-rule="evenodd" clip-rule="evenodd" d="M14.4998 23.6699C14.4998 18.8817 18.3381 15 23.0729 15C25.3467 15 27.5273 15.9134 29.1351 17.5394C30.7429 19.1653 31.6461 21.3705 31.6461 23.6699C31.6461 28.4582 27.8078 32.3399 23.0729 32.3399C18.3381 32.3399 14.4998 28.4582 14.4998 23.6699ZM31.5043 30.6543L34.0576 32.7164H34.102C34.6185 33.2388 34.6185 34.0858 34.102 34.6082C33.5854 35.1306 32.7479 35.1306 32.2313 34.6082L30.1124 32.1784C29.9121 31.9766 29.7995 31.7023 29.7995 31.4164C29.7995 31.1304 29.9121 30.8561 30.1124 30.6543C30.4987 30.2704 31.118 30.2704 31.5043 30.6543Z" fill="#6E9CFD"/>
</svg>
